<svg xmlns="http://www.w3.org/2000/svg" xmlns:xlink="http://www.w3.org/1999/xlink" version="1.1" width="881.9" height="625" viewBox="6.9 13.9 881.9 625"><g><g transform="translate(7,43)"><g><g>
<path d="M795,0H0v543h795V0L795,0z" stroke="#000000" stroke-dasharray="none" fill="#FFFFFF"/>
<rect x="34.8" y="24.8" width="725.5" height="493.5" fill="none"/>
<circle fill="none" cx="397.5" cy="0" r="0.1"/>
<circle fill="none" cx="594.5" cy="0" r="0.1"/>
<circle fill="none" cx="795" cy="136.9" r="0.1"/>
<circle fill="none" cx="795" cy="271.5" r="0.1"/>
<circle fill="none" cx="795" cy="406.1" r="0.1"/>
<circle fill="none" cx="594.5" cy="543" r="0.1"/>
<circle fill="none" cx="397.5" cy="543" r="0.1"/>
<circle fill="none" cx="200.6" cy="543" r="0.1"/>
<circle fill="none" cx="0" cy="406.1" r="0.1"/>
<circle fill="none" cx="0" cy="271.5" r="0.1"/>
<circle fill="none" cx="0" cy="136.9" r="0.1"/>
<circle fill="none" cx="200.6" cy="0" r="0.1"/>
</g></g><rect stroke="none" stroke-width="1" fill="#FFFFFF" x="0" y="0" width="40" height="20" transform="translate(834.9,261.4)"/><path stroke="#000000" fill="none" d="M795,271.5 C811.9,288.4 817.9,254.5 834.9 271.4"/><text font-family="OpenSansCondensedLight" font-size="14pt" fill="black" transform="translate(834.9,261.4)" text-anchor="middle"><tspan x="20" y="16.3">102</tspan></text><rect stroke-width="0" fill="none" width="725.5" height="493.5" transform="translate(34.8,24.8)"/><text font-family="OpenSansCondensedLight" font-size="14pt" fill="black" transform="translate(34.8,24.8)" text-anchor="middle"><tspan x="362.8" y="16.8">TRACTION BATTERY PACK</tspan></text><path stroke="#000000" fill="none" transform="translate(34.8,24.8)" d="M 0 0"/></g><g transform="translate(579,594)"><g><g>
<path d="M185,0H0v24h185V0L185,0z" fill="none" stroke="none" stroke-dasharray="none"/>
<rect x="8.1" y="1.1" width="168.8" height="21.8" fill="none"/>
<circle fill="none" cx="92.5" cy="0" r="0.1"/>
<circle fill="none" cx="138.3" cy="0" r="0.1"/>
<circle fill="none" cx="185" cy="6.1" r="0.1"/>
<circle fill="none" cx="185" cy="12" r="0.1"/>
<circle fill="none" cx="185" cy="17.9" r="0.1"/>
<circle fill="none" cx="138.3" cy="24" r="0.1"/>
<circle fill="none" cx="92.5" cy="24" r="0.1"/>
<circle fill="none" cx="46.7" cy="24" r="0.1"/>
<circle fill="none" cx="0" cy="17.9" r="0.1"/>
<circle fill="none" cx="0" cy="12" r="0.1"/>
<circle fill="none" cx="0" cy="6.1" r="0.1"/>
<circle fill="none" cx="46.7" cy="0" r="0.1"/>
</g></g><rect stroke="none" stroke-width="0" fill="#FFFFFF" x="0" y="0" width="0" height="0" transform="translate(184.9,11.9)"/><path stroke="#000000" fill="none" d=""/><text font-family="OpenSansCondensedLight" font-size="14pt" fill="black" transform="translate(184.9,11.9)"/><rect stroke-width="0" fill="none" width="168.8" height="21.8" transform="translate(8.1,1.1)"/><text font-family="OpenSansCondensedLight" font-size="14pt" fill="black" transform="translate(8.1,1.1)" text-anchor="middle"><tspan x="84.4" y="17.2">NEGATIVE TERMINAL</tspan></text><path stroke="#000000" fill="none" transform="translate(8.1,1.1)" d="M 0 0"/></g><g transform="translate(578,14)"><g><g>
<path d="M185,0H0v24h185V0L185,0z" fill="none" stroke="none" stroke-dasharray="none"/>
<rect x="8.1" y="1.1" width="168.8" height="21.8" fill="none"/>
<circle fill="none" cx="92.5" cy="0" r="0.1"/>
<circle fill="none" cx="138.3" cy="0" r="0.1"/>
<circle fill="none" cx="185" cy="6.1" r="0.1"/>
<circle fill="none" cx="185" cy="12" r="0.1"/>
<circle fill="none" cx="185" cy="17.9" r="0.1"/>
<circle fill="none" cx="138.3" cy="24" r="0.1"/>
<circle fill="none" cx="92.5" cy="24" r="0.1"/>
<circle fill="none" cx="46.7" cy="24" r="0.1"/>
<circle fill="none" cx="0" cy="17.9" r="0.1"/>
<circle fill="none" cx="0" cy="12" r="0.1"/>
<circle fill="none" cx="0" cy="6.1" r="0.1"/>
<circle fill="none" cx="46.7" cy="0" r="0.1"/>
</g></g><rect stroke="none" stroke-width="0" fill="#FFFFFF" x="0" y="0" width="0" height="0" transform="translate(184.9,11.9)"/><path stroke="#000000" fill="none" d=""/><text font-family="OpenSansCondensedLight" font-size="14pt" fill="black" transform="translate(184.9,11.9)"/><rect stroke-width="0" fill="none" width="168.8" height="21.8" transform="translate(8.1,1.1)"/><text font-family="OpenSansCondensedLight" font-size="14pt" fill="black" transform="translate(8.1,1.1)" text-anchor="middle"><tspan x="84.4" y="17.2">POSITIVE TERMINAL</tspan></text><path stroke="#000000" fill="none" transform="translate(8.1,1.1)" d="M 0 0"/></g><g transform="translate(594,598)"><g><g>
<g stroke="#000000" stroke-dasharray="none">
    <line fill="none" x1="12" y1="0" x2="0" y2="17"/>
    <line fill="none" x1="0" y1="0" x2="12" y2="17"/>
</g>
<ellipse stroke="#000000" cx="6" cy="8.5" rx="4.6" ry="6.5"/>
<rect x="1.4" y="2" fill="none" width="9.2" height="13"/>
<circle fill="none" cx="6" cy="2" r="0.1"/>
<circle fill="none" cx="8.3" cy="2.9" r="0.1"/>
<circle fill="none" cx="10" cy="5.3" r="0.1"/>
<circle fill="none" cx="10.6" cy="8.4" r="0.1"/>
<circle fill="none" cx="10" cy="11.7" r="0.1"/>
<circle fill="none" cx="8.3" cy="14.1" r="0.1"/>
<circle fill="none" cx="6" cy="15" r="0.1"/>
<circle fill="none" cx="3.7" cy="14.1" r="0.1"/>
<circle fill="none" cx="2" cy="11.7" r="0.1"/>
<circle fill="none" cx="1.4" cy="8.4" r="0.1"/>
<circle fill="none" cx="2" cy="5.3" r="0.1"/>
<circle fill="none" cx="3.8" cy="2.8" r="0.1"/>
</g></g><rect stroke="none" stroke-width="0" fill="#FFFFFF" x="0" y="0" width="0" height="0" transform="translate(10.5,8.3)"/><path stroke="#000000" fill="none" d=""/><text font-family="OpenSansCondensedLight" font-size="14pt" fill="black" transform="translate(10.5,8.3)"/><rect stroke-width="0" fill="none" width="36" transform="translate(-12,27)"/><text font-family="OpenSansCondensedLight" font-size="14pt" fill="black" transform="translate(-12,27)" text-anchor="middle"><tspan x="18" y="16.8"> </tspan></text><path stroke="#000000" fill="none" transform="translate(-12,27)" d="M 0 0"/></g><g transform="translate(542,535)"><g><g>
<g stroke="#000000" stroke-dasharray="none">
    <line fill="none" x1="12" y1="0" x2="0" y2="17"/>
    <line fill="none" x1="0" y1="0" x2="12" y2="17"/>
</g>
<ellipse stroke="#000000" cx="6" cy="8.5" rx="4.6" ry="6.5"/>
<rect x="1.4" y="2" fill="none" width="9.2" height="13"/>
<circle fill="none" cx="6" cy="2" r="0.1"/>
<circle fill="none" cx="8.3" cy="2.9" r="0.1"/>
<circle fill="none" cx="10" cy="5.3" r="0.1"/>
<circle fill="none" cx="10.6" cy="8.4" r="0.1"/>
<circle fill="none" cx="10" cy="11.7" r="0.1"/>
<circle fill="none" cx="8.3" cy="14.1" r="0.1"/>
<circle fill="none" cx="6" cy="15" r="0.1"/>
<circle fill="none" cx="3.7" cy="14.1" r="0.1"/>
<circle fill="none" cx="2" cy="11.7" r="0.1"/>
<circle fill="none" cx="1.4" cy="8.4" r="0.1"/>
<circle fill="none" cx="2" cy="5.3" r="0.1"/>
<circle fill="none" cx="3.8" cy="2.8" r="0.1"/>
</g></g><rect stroke="none" stroke-width="0" fill="#FFFFFF" x="0" y="0" width="0" height="0" transform="translate(10.5,8.3)"/><path stroke="#000000" fill="none" d=""/><text font-family="OpenSansCondensedLight" font-size="14pt" fill="black" transform="translate(10.5,8.3)"/><rect stroke-width="0" fill="none" width="36" transform="translate(-12,27)"/><text font-family="OpenSansCondensedLight" font-size="14pt" fill="black" transform="translate(-12,27)" text-anchor="middle"><tspan x="18" y="16.8"> </tspan></text><path stroke="#000000" fill="none" transform="translate(-12,27)" d="M 0 0"/></g><g transform="translate(592,18)"><g><g>
<g stroke="#000000" stroke-dasharray="none">
    <line fill="none" x1="12" y1="0" x2="0" y2="17"/>
    <line fill="none" x1="0" y1="0" x2="12" y2="17"/>
</g>
<ellipse stroke="#000000" cx="6" cy="8.5" rx="4.6" ry="6.5"/>
<rect x="1.4" y="2" fill="none" width="9.2" height="13"/>
<circle fill="none" cx="6" cy="2" r="0.1"/>
<circle fill="none" cx="8.3" cy="2.9" r="0.1"/>
<circle fill="none" cx="10" cy="5.3" r="0.1"/>
<circle fill="none" cx="10.6" cy="8.4" r="0.1"/>
<circle fill="none" cx="10" cy="11.7" r="0.1"/>
<circle fill="none" cx="8.3" cy="14.1" r="0.1"/>
<circle fill="none" cx="6" cy="15" r="0.1"/>
<circle fill="none" cx="3.7" cy="14.1" r="0.1"/>
<circle fill="none" cx="2" cy="11.7" r="0.1"/>
<circle fill="none" cx="1.4" cy="8.4" r="0.1"/>
<circle fill="none" cx="2" cy="5.3" r="0.1"/>
<circle fill="none" cx="3.8" cy="2.8" r="0.1"/>
</g></g><rect stroke="none" stroke-width="0" fill="#FFFFFF" x="0" y="0" width="0" height="0" transform="translate(10.5,8.3)"/><path stroke="#000000" fill="none" d=""/><text font-family="OpenSansCondensedLight" font-size="14pt" fill="black" transform="translate(10.5,8.3)"/><rect stroke-width="0" fill="none" width="36" transform="translate(-12,27)"/><text font-family="OpenSansCondensedLight" font-size="14pt" fill="black" transform="translate(-12,27)" text-anchor="middle"><tspan x="18" y="16.8"> </tspan></text><path stroke="#000000" fill="none" transform="translate(-12,27)" d="M 0 0"/></g><g transform="translate(540,97)"><g><g>
<g stroke="#000000" stroke-dasharray="none">
    <line fill="none" x1="12" y1="0" x2="0" y2="17"/>
    <line fill="none" x1="0" y1="0" x2="12" y2="17"/>
</g>
<ellipse stroke="#000000" cx="6" cy="8.5" rx="4.6" ry="6.5"/>
<rect x="1.4" y="2" fill="none" width="9.2" height="13"/>
<circle fill="none" cx="6" cy="2" r="0.1"/>
<circle fill="none" cx="8.3" cy="2.9" r="0.1"/>
<circle fill="none" cx="10" cy="5.3" r="0.1"/>
<circle fill="none" cx="10.6" cy="8.4" r="0.1"/>
<circle fill="none" cx="10" cy="11.7" r="0.1"/>
<circle fill="none" cx="8.3" cy="14.1" r="0.1"/>
<circle fill="none" cx="6" cy="15" r="0.1"/>
<circle fill="none" cx="3.7" cy="14.1" r="0.1"/>
<circle fill="none" cx="2" cy="11.7" r="0.1"/>
<circle fill="none" cx="1.4" cy="8.4" r="0.1"/>
<circle fill="none" cx="2" cy="5.3" r="0.1"/>
<circle fill="none" cx="3.8" cy="2.8" r="0.1"/>
</g></g><rect stroke="none" stroke-width="0" fill="#FFFFFF" x="0" y="0" width="0" height="0" transform="translate(10.5,8.3)"/><path stroke="#000000" fill="none" d=""/><text font-family="OpenSansCondensedLight" font-size="14pt" fill="black" transform="translate(10.5,8.3)"/><rect stroke-width="0" fill="none" width="36" transform="translate(-12,27)"/><text font-family="OpenSansCondensedLight" font-size="14pt" fill="black" transform="translate(-12,27)" text-anchor="middle"><tspan x="18" y="16.8"> </tspan></text><path stroke="#000000" fill="none" transform="translate(-12,27)" d="M 0 0"/></g><g transform="translate(386,313)"><g><g>
<g stroke="#000000" stroke-dasharray="none">
    <line fill="none" x1="12" y1="0" x2="0" y2="17"/>
    <line fill="none" x1="0" y1="0" x2="12" y2="17"/>
</g>
<ellipse stroke="#000000" cx="6" cy="8.5" rx="4.6" ry="6.5"/>
<rect x="1.4" y="2" fill="none" width="9.2" height="13"/>
<circle fill="none" cx="6" cy="2" r="0.1"/>
<circle fill="none" cx="8.3" cy="2.9" r="0.1"/>
<circle fill="none" cx="10" cy="5.3" r="0.1"/>
<circle fill="none" cx="10.6" cy="8.4" r="0.1"/>
<circle fill="none" cx="10" cy="11.7" r="0.1"/>
<circle fill="none" cx="8.3" cy="14.1" r="0.1"/>
<circle fill="none" cx="6" cy="15" r="0.1"/>
<circle fill="none" cx="3.7" cy="14.1" r="0.1"/>
<circle fill="none" cx="2" cy="11.7" r="0.1"/>
<circle fill="none" cx="1.4" cy="8.4" r="0.1"/>
<circle fill="none" cx="2" cy="5.3" r="0.1"/>
<circle fill="none" cx="3.8" cy="2.8" r="0.1"/>
</g></g><rect stroke="none" stroke-width="0" fill="#FFFFFF" x="0" y="0" width="0" height="0" transform="translate(10.5,8.3)"/><path stroke="#000000" fill="none" d=""/><text font-family="OpenSansCondensedLight" font-size="14pt" fill="black" transform="translate(10.5,8.3)"/><rect stroke-width="0" fill="none" width="36" transform="translate(-12,27)"/><text font-family="OpenSansCondensedLight" font-size="14pt" fill="black" transform="translate(-12,27)" text-anchor="middle"><tspan x="18" y="16.8"> </tspan></text><path stroke="#000000" fill="none" transform="translate(-12,27)" d="M 0 0"/></g><g><path stroke="black" stroke-dasharray="none" d="M 549 551 L 549 581 C 542.3 584 542.3 588 549 591 L 549 607 L 595 607" fill="none"/><path fill="black" stroke="black" d="" transform="translate(549,551) scale(1,1) rotate(-270)"/><path fill="black" stroke="black" d="" transform="translate(595,607) scale(1,1) rotate(-180)"/><g><g label-idx="0" cursor="move" transform="translate(549, 599.5)"><rect fill="white" rx="3" ry="3" x="0" y="0" width="0" height="0"/><text text-anchor="middle" font-size="14pt" font-family="OpenSansCondensedLight" y="0.8em" display="none" xml:space="preserve" transform="translate(0,0)"/></g></g></g><g><path stroke="black" stroke-dasharray="none" d="M 528 586 602 586" fill="none"/><path fill="black" stroke="black" d="" transform="translate(528,586) scale(1,1) rotate(0)"/><path fill="black" stroke="black" d="" transform="translate(602,586) scale(1,1) rotate(-180)"/><g><g label-idx="0" cursor="move" transform="translate(565, 586)"><rect fill="white" rx="3" ry="3" x="0" y="0" width="0" height="0"/><text text-anchor="middle" font-size="14pt" font-family="OpenSansCondensedLight" y="0.8em" display="none" xml:space="preserve" transform="translate(0,0)"/></g></g></g><g><path stroke="black" stroke-dasharray="none" d="M 546 100 L 546 48 C 552.8 45 552.8 41 546 38 L 546 27 L 593 27" fill="none"/><path fill="black" stroke="black" d="" transform="translate(546,100) scale(1,1) rotate(-90)"/><path fill="black" stroke="black" d="" transform="translate(593,27) scale(1,1) rotate(-180)"/><g><g label-idx="0" cursor="move" transform="translate(549.8, 40.4)"><rect fill="white" rx="3" ry="3" x="0" y="0" width="0" height="0"/><text text-anchor="middle" font-size="14pt" font-family="OpenSansCondensedLight" y="0.8em" display="none" xml:space="preserve" transform="translate(0,0)"/></g></g></g><g><path stroke="black" stroke-dasharray="none" d="M 522 43 602 43" fill="none"/><path fill="black" stroke="black" d="" transform="translate(522,43) scale(1,1) rotate(0)"/><path fill="black" stroke="black" d="" transform="translate(602,43) scale(1,1) rotate(-180)"/><g><g label-idx="0" cursor="move" transform="translate(562, 43)"><rect fill="white" rx="3" ry="3" x="0" y="0" width="0" height="0"/><text text-anchor="middle" font-size="14pt" font-family="OpenSansCondensedLight" y="0.8em" display="none" xml:space="preserve" transform="translate(0,0)"/></g></g></g><g transform="translate(500,137)"><g><g>
<path d="M94,0H0v49h94V0L94,0z" stroke="#000000" stroke-dasharray="none" fill="#FFFFFF"/>
<rect x="4.1" y="2.2" width="85.8" height="44.5" fill="none"/>
<circle fill="none" cx="47" cy="0" r="0.1"/>
<circle fill="none" cx="70.3" cy="0" r="0.1"/>
<circle fill="none" cx="94" cy="12.4" r="0.1"/>
<circle fill="none" cx="94" cy="24.5" r="0.1"/>
<circle fill="none" cx="94" cy="36.6" r="0.1"/>
<circle fill="none" cx="70.3" cy="49" r="0.1"/>
<circle fill="none" cx="47" cy="49" r="0.1"/>
<circle fill="none" cx="23.7" cy="49" r="0.1"/>
<circle fill="none" cx="0" cy="36.6" r="0.1"/>
<circle fill="none" cx="0" cy="24.5" r="0.1"/>
<circle fill="none" cx="0" cy="12.4" r="0.1"/>
<circle fill="none" cx="23.7" cy="0" r="0.1"/>
</g></g><rect stroke="none" stroke-width="0" fill="#FFFFFF" x="0" y="0" width="0" height="0" transform="translate(93.9,24.4)"/><path stroke="#000000" fill="none" d=""/><text font-family="OpenSansCondensedLight" font-size="14pt" fill="black" transform="translate(93.9,24.4)"/><rect stroke-width="0" fill="none" width="85.8" height="44.5" transform="translate(4.1,2.2)"/><text font-family="OpenSansCondensedLight" font-size="14pt" fill="black" transform="translate(4.1,2.2)" text-anchor="middle"><tspan x="42.9" y="16.8">BATTERY CELL</tspan><tspan x="42.9" y="37.8">1</tspan></text><path stroke="#000000" fill="none" transform="translate(4.1,2.2)" d="M 0 0"/></g><g transform="translate(500,219)"><g><g>
<path d="M94,0H0v49h94V0L94,0z" stroke="#000000" stroke-dasharray="none" fill="#FFFFFF"/>
<rect x="4.1" y="2.2" width="85.8" height="44.5" fill="none"/>
<circle fill="none" cx="47" cy="0" r="0.1"/>
<circle fill="none" cx="70.3" cy="0" r="0.1"/>
<circle fill="none" cx="94" cy="12.4" r="0.1"/>
<circle fill="none" cx="94" cy="24.5" r="0.1"/>
<circle fill="none" cx="94" cy="36.6" r="0.1"/>
<circle fill="none" cx="70.3" cy="49" r="0.1"/>
<circle fill="none" cx="47" cy="49" r="0.1"/>
<circle fill="none" cx="23.7" cy="49" r="0.1"/>
<circle fill="none" cx="0" cy="36.6" r="0.1"/>
<circle fill="none" cx="0" cy="24.5" r="0.1"/>
<circle fill="none" cx="0" cy="12.4" r="0.1"/>
<circle fill="none" cx="23.7" cy="0" r="0.1"/>
</g></g><rect stroke="none" stroke-width="0" fill="#FFFFFF" x="0" y="0" width="0" height="0" transform="translate(93.9,24.4)"/><path stroke="#000000" fill="none" d=""/><text font-family="OpenSansCondensedLight" font-size="14pt" fill="black" transform="translate(93.9,24.4)"/><rect stroke-width="0" fill="none" width="85.8" height="44.5" transform="translate(4.1,2.2)"/><text font-family="OpenSansCondensedLight" font-size="14pt" fill="black" transform="translate(4.1,2.2)" text-anchor="middle"><tspan x="42.9" y="16.8">BATTERY CELL</tspan><tspan x="42.9" y="37.8">2</tspan></text><path stroke="#000000" fill="none" transform="translate(4.1,2.2)" d="M 0 0"/></g><g transform="translate(340,176)"><g><g>
<path d="M102.2,0H0v53.3h102.2V0L102.2,0z" stroke="#000000" stroke-dasharray="none" fill="#FFFFFF"/>
<rect x="4.5" y="2.4" width="93.3" height="48.4" fill="none"/>
<circle fill="none" cx="51.1" cy="0" r="0.1"/>
<circle fill="none" cx="76.4" cy="0" r="0.1"/>
<circle fill="none" cx="102.2" cy="13.4" r="0.1"/>
<circle fill="none" cx="102.2" cy="26.6" r="0.1"/>
<circle fill="none" cx="102.2" cy="39.8" r="0.1"/>
<circle fill="none" cx="76.4" cy="53.3" r="0.1"/>
<circle fill="none" cx="51.1" cy="53.3" r="0.1"/>
<circle fill="none" cx="25.8" cy="53.3" r="0.1"/>
<circle fill="none" cx="0" cy="39.8" r="0.1"/>
<circle fill="none" cx="0" cy="26.6" r="0.1"/>
<circle fill="none" cx="0" cy="13.4" r="0.1"/>
<circle fill="none" cx="25.8" cy="0" r="0.1"/>
</g></g><rect stroke="none" stroke-width="1" fill="#FFFFFF" x="0" y="0" width="40" height="20" transform="translate(86.3,-62.1)"/><path stroke="#000000" fill="none" d="M76.4,0 C104.5,-7.6 72.5,-34.5 100.6 -42.1"/><text font-family="OpenSansCondensedLight" font-size="14pt" fill="black" transform="translate(86.3,-62.1)" text-anchor="middle"><tspan x="20" y="16.3">106</tspan></text><rect stroke-width="0" fill="none" width="93.3" height="48.4" transform="translate(4.5,2.4)"/><text font-family="OpenSansCondensedLight" font-size="14pt" fill="black" transform="translate(4.5,2.4)" text-anchor="middle"><tspan x="46.6" y="16.8">SENSOR</tspan><tspan x="46.6" y="37.8">MODULE N1</tspan></text><path stroke="#000000" fill="none" transform="translate(4.5,2.4)" d="M 0 0"/></g><g transform="translate(500,336)"><g><g>
<path d="M94,0H0v49h94V0L94,0z" stroke="#000000" stroke-dasharray="none" fill="#FFFFFF"/>
<rect x="4.1" y="2.2" width="85.8" height="44.5" fill="none"/>
<circle fill="none" cx="47" cy="0" r="0.1"/>
<circle fill="none" cx="70.3" cy="0" r="0.1"/>
<circle fill="none" cx="94" cy="12.4" r="0.1"/>
<circle fill="none" cx="94" cy="24.5" r="0.1"/>
<circle fill="none" cx="94" cy="36.6" r="0.1"/>
<circle fill="none" cx="70.3" cy="49" r="0.1"/>
<circle fill="none" cx="47" cy="49" r="0.1"/>
<circle fill="none" cx="23.7" cy="49" r="0.1"/>
<circle fill="none" cx="0" cy="36.6" r="0.1"/>
<circle fill="none" cx="0" cy="24.5" r="0.1"/>
<circle fill="none" cx="0" cy="12.4" r="0.1"/>
<circle fill="none" cx="23.7" cy="0" r="0.1"/>
</g></g><rect stroke="none" stroke-width="0" fill="#FFFFFF" x="0" y="0" width="0" height="0" transform="translate(93.9,24.4)"/><path stroke="#000000" fill="none" d=""/><text font-family="OpenSansCondensedLight" font-size="14pt" fill="black" transform="translate(93.9,24.4)"/><rect stroke-width="0" fill="none" width="85.8" height="44.5" transform="translate(4.1,2.2)"/><text font-family="OpenSansCondensedLight" font-size="14pt" fill="black" transform="translate(4.1,2.2)" text-anchor="middle"><tspan x="42.9" y="16.8">BATTERY CELL</tspan><tspan x="42.9" y="37.8">N-1</tspan></text><path stroke="#000000" fill="none" transform="translate(4.1,2.2)" d="M 0 0"/></g><g transform="translate(340,374)"><g><g>
<path d="M102,0H0v53h102V0L102,0z" stroke="#000000" stroke-dasharray="none" fill="#FFFFFF"/>
<rect x="4.5" y="2.4" width="93.1" height="48.2" fill="none"/>
<circle fill="none" cx="51" cy="0" r="0.1"/>
<circle fill="none" cx="76.3" cy="0" r="0.1"/>
<circle fill="none" cx="102" cy="13.4" r="0.1"/>
<circle fill="none" cx="102" cy="26.5" r="0.1"/>
<circle fill="none" cx="102" cy="39.6" r="0.1"/>
<circle fill="none" cx="76.3" cy="53" r="0.1"/>
<circle fill="none" cx="51" cy="53" r="0.1"/>
<circle fill="none" cx="25.7" cy="53" r="0.1"/>
<circle fill="none" cx="0" cy="39.6" r="0.1"/>
<circle fill="none" cx="0" cy="26.5" r="0.1"/>
<circle fill="none" cx="0" cy="13.4" r="0.1"/>
<circle fill="none" cx="25.7" cy="0" r="0.1"/>
</g></g><rect stroke="none" stroke-width="1" fill="#FFFFFF" x="0" y="0" width="40" height="20" transform="translate(-24.4,94.9)"/><path stroke="#000000" fill="none" d="M25.7,53 C-2.3,60.5 29.5,87.4 1.4 94.9"/><text font-family="OpenSansCondensedLight" font-size="14pt" fill="black" transform="translate(-24.4,94.9)" text-anchor="middle"><tspan x="20" y="16.3">106</tspan></text><rect stroke-width="0" fill="none" width="93.1" height="48.2" transform="translate(4.5,2.4)"/><text font-family="OpenSansCondensedLight" font-size="14pt" fill="black" transform="translate(4.5,2.4)" text-anchor="middle"><tspan x="46.5" y="16.8">SENSOR</tspan><tspan x="46.5" y="37.8">MODULE N1</tspan></text><path stroke="#000000" fill="none" transform="translate(4.5,2.4)" d="M 0 0"/></g><g transform="translate(500,404)"><g><g>
<path d="M94,0H0v49h94V0L94,0z" stroke="#000000" stroke-dasharray="none" fill="#FFFFFF"/>
<rect x="4.1" y="2.2" width="85.8" height="44.5" fill="none"/>
<circle fill="none" cx="47" cy="0" r="0.1"/>
<circle fill="none" cx="70.3" cy="0" r="0.1"/>
<circle fill="none" cx="94" cy="12.4" r="0.1"/>
<circle fill="none" cx="94" cy="24.5" r="0.1"/>
<circle fill="none" cx="94" cy="36.6" r="0.1"/>
<circle fill="none" cx="70.3" cy="49" r="0.1"/>
<circle fill="none" cx="47" cy="49" r="0.1"/>
<circle fill="none" cx="23.7" cy="49" r="0.1"/>
<circle fill="none" cx="0" cy="36.6" r="0.1"/>
<circle fill="none" cx="0" cy="24.5" r="0.1"/>
<circle fill="none" cx="0" cy="12.4" r="0.1"/>
<circle fill="none" cx="23.7" cy="0" r="0.1"/>
</g></g><rect stroke="none" stroke-width="0" fill="#FFFFFF" x="0" y="0" width="0" height="0" transform="translate(93.9,24.4)"/><path stroke="#000000" fill="none" d=""/><text font-family="OpenSansCondensedLight" font-size="14pt" fill="black" transform="translate(93.9,24.4)"/><rect stroke-width="0" fill="none" width="85.8" height="44.5" transform="translate(4.1,2.2)"/><text font-family="OpenSansCondensedLight" font-size="14pt" fill="black" transform="translate(4.1,2.2)" text-anchor="middle"><tspan x="42.9" y="16.8">BATTERY CELL</tspan><tspan x="42.9" y="37.8">N</tspan></text><path stroke="#000000" fill="none" transform="translate(4.1,2.2)" d="M 0 0"/></g><g transform="translate(605,148)"><g><g>
<g fill="#FFFFFF">
    <path d="M38,150.3c-7.8,0.4,-14.5,14.9,-14.5,39.2v69.4c0,24.3,-5.7,37.9,-13.3,37.9H0L0,0l10.2,0c7.5,0,13.3,13.6,13.3,38.3v72.8C23.5,135,30,149.9,38,150.3"/>
</g>
<g stroke="#000000" stroke-dasharray="none">
    <path fill="none" stroke-linejoin="round" d="M0,0h10.2c7.5,0,13.3,13.6,13.3,38.3v72.8c0,23.8,6.5,38.7,14.5,39.2"/>
    <path fill="none" stroke-linejoin="round" d="M38,150.3c-7.8,0.4,-14.5,14.9,-14.5,39.2v69.4c0,24.3,-5.7,37.9,-13.3,37.9H0"/>
</g>
<rect x="2.6" y="6.4" fill="none" width="32.7" height="284"/>
<circle fill="none" cx="9.5" cy="0.3" r="0.1"/>
<circle fill="none" cx="20.7" cy="13" r="0.1"/>
<circle fill="none" cx="23.6" cy="44.3" r="0.1"/>
<circle fill="none" cx="23.5" cy="109" r="0.1"/>
<circle fill="none" cx="31.4" cy="142.5" r="0.1"/>
<circle fill="none" cx="31.3" cy="151.1" r="0.1"/>
<circle fill="none" cx="23.7" cy="179.5" r="0.1"/>
<circle fill="none" cx="23.6" cy="235.3" r="0.1"/>
<circle fill="none" cx="20.4" cy="285.2" r="0.1"/>
<circle fill="none" cx="9.5" cy="297" r="0.1"/>
<circle fill="none" cx="0.1" cy="297" r="0.1"/>
<circle fill="none" cx="0.1" cy="0.3" r="0.1"/>
</g></g><rect stroke="none" stroke-width="1" fill="#FFFFFF" x="0" y="0" width="40" height="20" transform="translate(70.3,151.1)"/><path stroke="#000000" fill="none" d="M31.3,151.1 C45.1,170.5 56.6,138.4 70.3 157.7"/><text font-family="OpenSansCondensedLight" font-size="14pt" fill="black" transform="translate(70.3,151.1)" text-anchor="middle"><tspan x="20" y="16.3">104</tspan></text><rect stroke-width="0" fill="none" width="32.7" height="284" transform="translate(2.6,6.4)"/><text font-family="OpenSansCondensedLight" font-size="14pt" fill="black" transform="translate(2.6,6.4)" text-anchor="middle"><tspan x="16.4" y="148.3"> </tspan></text><path stroke="#000000" fill="none" transform="translate(2.6,6.4)" d="M 0 0"/></g><g><path stroke="black" stroke-dasharray="none" d="M 548 137 548 111" fill="none"/><path fill="black" stroke="black" d="" transform="translate(548,137) scale(1,1) rotate(-90)"/><path fill="black" stroke="black" d="" transform="translate(548,111) scale(1,1) rotate(-270)"/><g><g label-idx="0" cursor="move" transform="translate(548, 124)"><rect fill="white" rx="3" ry="3" x="0" y="0" width="0" height="0"/><text text-anchor="middle" font-size="14pt" font-family="OpenSansCondensedLight" y="0.8em" display="none" xml:space="preserve" transform="translate(0,0)"/></g></g></g><g><path stroke="black" stroke-dasharray="none" d="M 547 186 547 219" fill="none"/><path fill="black" stroke="black" d="" transform="translate(547,186) scale(1,1) rotate(-270)"/><path fill="black" stroke="black" d="" transform="translate(547,219) scale(1,1) rotate(-90)"/><g><g label-idx="0" cursor="move" transform="translate(547, 202.5)"><rect fill="white" rx="3" ry="3" x="0" y="0" width="0" height="0"/><text text-anchor="middle" font-size="14pt" font-family="OpenSansCondensedLight" y="0.8em" display="none" xml:space="preserve" transform="translate(0,0)"/></g></g></g><g><path stroke="black" stroke-dasharray="none" d="M 547 385 547 404" fill="none"/><path fill="black" stroke="black" d="" transform="translate(547,385) scale(1,1) rotate(-270)"/><path fill="black" stroke="black" d="" transform="translate(547,404) scale(1,1) rotate(-90)"/><g><g label-idx="0" cursor="move" transform="translate(547, 394.5)"><rect fill="white" rx="3" ry="3" x="0" y="0" width="0" height="0"/><text text-anchor="middle" font-size="14pt" font-family="OpenSansCondensedLight" y="0.8em" display="none" xml:space="preserve" transform="translate(0,0)"/></g></g></g><g transform="translate(537,302)"><g><g>
<g fill="#FFFFFF">
    <rect y="0" width="18" height="4"/>
</g>
<g stroke="#000000" stroke-dasharray="none">
    <line fill="none" stroke-linejoin="round" x1="0" y1="4" x2="17.8" y2="4"/>
</g>
<rect x="0.7" y="0.2" fill="none" width="16.6" height="3.7"/>
<circle fill="none" cx="9.6" cy="4" r="0.1"/>
<circle fill="none" cx="12.6" cy="4" r="0.1"/>
<circle fill="none" cx="15.6" cy="4" r="0.1"/>
<circle fill="none" cx="17.1" cy="4" r="0.1"/>
<circle fill="none" cx="14.1" cy="4" r="0.1"/>
<circle fill="none" cx="11.1" cy="4" r="0.1"/>
<circle fill="none" cx="8" cy="4" r="0.1"/>
<circle fill="none" cx="5" cy="4" r="0.1"/>
<circle fill="none" cx="2" cy="4" r="0.1"/>
<circle fill="none" cx="0.5" cy="4" r="0.1"/>
<circle fill="none" cx="3.5" cy="4" r="0.1"/>
<circle fill="none" cx="6.5" cy="4" r="0.1"/>
</g></g><rect stroke="none" stroke-width="0" fill="#FFFFFF" x="0" y="0" width="0" height="0" transform="translate(11,3.9)"/><path stroke="#000000" fill="none" d=""/><text font-family="OpenSansCondensedLight" font-size="14pt" fill="black" transform="translate(11,3.9)"/><rect stroke-width="0" fill="none" width="16.6" height="3.7" transform="translate(0.7,0.2)"/><text font-family="OpenSansCondensedLight" font-size="14pt" fill="black" transform="translate(0.7,0.2)" text-anchor="middle"><tspan x="8.3" y="8.1"> </tspan></text><path stroke="#000000" fill="none" transform="translate(0.7,0.2)" d="M 0 0"/></g><g transform="translate(537,312)"><g><g>
<g fill="#FFFFFF">
    <rect y="0" width="18" height="4"/>
</g>
<g stroke="#000000" stroke-dasharray="none">
    <line fill="none" stroke-linejoin="round" x1="0" y1="4" x2="17.8" y2="4"/>
</g>
<rect x="0.7" y="0.2" fill="none" width="16.6" height="3.7"/>
<circle fill="none" cx="9.6" cy="4" r="0.1"/>
<circle fill="none" cx="12.6" cy="4" r="0.1"/>
<circle fill="none" cx="15.6" cy="4" r="0.1"/>
<circle fill="none" cx="17.1" cy="4" r="0.1"/>
<circle fill="none" cx="14.1" cy="4" r="0.1"/>
<circle fill="none" cx="11.1" cy="4" r="0.1"/>
<circle fill="none" cx="8" cy="4" r="0.1"/>
<circle fill="none" cx="5" cy="4" r="0.1"/>
<circle fill="none" cx="2" cy="4" r="0.1"/>
<circle fill="none" cx="0.5" cy="4" r="0.1"/>
<circle fill="none" cx="3.5" cy="4" r="0.1"/>
<circle fill="none" cx="6.5" cy="4" r="0.1"/>
</g></g><rect stroke="none" stroke-width="0" fill="#FFFFFF" x="0" y="0" width="0" height="0" transform="translate(11,3.9)"/><path stroke="#000000" fill="none" d=""/><text font-family="OpenSansCondensedLight" font-size="14pt" fill="black" transform="translate(11,3.9)"/><rect stroke-width="0" fill="none" width="16.6" height="3.7" transform="translate(0.7,0.2)"/><text font-family="OpenSansCondensedLight" font-size="14pt" fill="black" transform="translate(0.7,0.2)" text-anchor="middle"><tspan x="8.3" y="8.1"> </tspan></text><path stroke="#000000" fill="none" transform="translate(0.7,0.2)" d="M 0 0"/></g><g><path stroke="black" stroke-dasharray="none" d="M 547 336 547 316" fill="none"/><path fill="black" stroke="black" d="" transform="translate(547,336) scale(1,1) rotate(-90)"/><path fill="black" stroke="black" d="" transform="translate(547,316) scale(1,1) rotate(-270)"/><g><g label-idx="0" cursor="move" transform="translate(547, 326)"><rect fill="white" rx="3" ry="3" x="0" y="0" width="0" height="0"/><text text-anchor="middle" font-size="14pt" font-family="OpenSansCondensedLight" y="0.8em" display="none" xml:space="preserve" transform="translate(0,0)"/></g></g></g><g><path stroke="black" stroke-dasharray="none" d="M 547 268 547 306" fill="none"/><path fill="black" stroke="black" d="" transform="translate(547,268) scale(1,1) rotate(-270)"/><path fill="black" stroke="black" d="" transform="translate(547,306) scale(1,1) rotate(-90)"/><g><g label-idx="0" cursor="move" transform="translate(547, 287)"><rect fill="white" rx="3" ry="3" x="0" y="0" width="0" height="0"/><text text-anchor="middle" font-size="14pt" font-family="OpenSansCondensedLight" y="0.8em" display="none" xml:space="preserve" transform="translate(0,0)"/></g></g></g><g transform="translate(452,197)"><g><g>
<g fill="#FFFFFF">
    <rect y="0" width="18" height="6"/>
</g>
<g stroke="#000000" stroke-dasharray="none">
    <line fill="none" stroke-linejoin="round" x1="0" y1="6" x2="17.8" y2="6"/>
</g>
<rect x="0.7" y="0.2" fill="none" width="16.6" height="5.5"/>
<circle fill="none" cx="9.6" cy="6" r="0.1"/>
<circle fill="none" cx="12.6" cy="6" r="0.1"/>
<circle fill="none" cx="15.6" cy="6" r="0.1"/>
<circle fill="none" cx="17.1" cy="6" r="0.1"/>
<circle fill="none" cx="14.1" cy="6" r="0.1"/>
<circle fill="none" cx="11.1" cy="6" r="0.1"/>
<circle fill="none" cx="8" cy="6" r="0.1"/>
<circle fill="none" cx="5" cy="6" r="0.1"/>
<circle fill="none" cx="2" cy="6" r="0.1"/>
<circle fill="none" cx="0.5" cy="6" r="0.1"/>
<circle fill="none" cx="3.5" cy="6" r="0.1"/>
<circle fill="none" cx="6.5" cy="6" r="0.1"/>
</g></g><rect stroke="none" stroke-width="0" fill="#FFFFFF" x="0" y="0" width="0" height="0" transform="translate(11,5.9)"/><path stroke="#000000" fill="none" d=""/><text font-family="OpenSansCondensedLight" font-size="14pt" fill="black" transform="translate(11,5.9)"/><rect stroke-width="0" fill="none" width="16.6" height="5.5" transform="translate(0.7,0.2)"/><text font-family="OpenSansCondensedLight" font-size="14pt" fill="black" transform="translate(0.7,0.2)" text-anchor="middle"><tspan x="8.3" y="9.1"> </tspan></text><path stroke="#000000" fill="none" transform="translate(0.7,0.2)" d="M 0 0"/></g><g transform="translate(458,394)"><g><g>
<g fill="#FFFFFF">
    <rect y="0" width="20" height="6"/>
</g>
<g stroke="#000000" stroke-dasharray="none">
    <line fill="none" stroke-linejoin="round" x1="0" y1="6" x2="19.8" y2="6"/>
</g>
<rect x="0.8" y="0.2" fill="none" width="18.4" height="5.5"/>
<circle fill="none" cx="10.6" cy="6" r="0.1"/>
<circle fill="none" cx="14" cy="6" r="0.1"/>
<circle fill="none" cx="17.4" cy="6" r="0.1"/>
<circle fill="none" cx="19" cy="6" r="0.1"/>
<circle fill="none" cx="15.7" cy="6" r="0.1"/>
<circle fill="none" cx="12.3" cy="6" r="0.1"/>
<circle fill="none" cx="8.9" cy="6" r="0.1"/>
<circle fill="none" cx="5.6" cy="6" r="0.1"/>
<circle fill="none" cx="2.2" cy="6" r="0.1"/>
<circle fill="none" cx="0.5" cy="6" r="0.1"/>
<circle fill="none" cx="3.9" cy="6" r="0.1"/>
<circle fill="none" cx="7.3" cy="6" r="0.1"/>
</g></g><rect stroke="none" stroke-width="0" fill="#FFFFFF" x="0" y="0" width="0" height="0" transform="translate(12.2,5.9)"/><path stroke="#000000" fill="none" d=""/><text font-family="OpenSansCondensedLight" font-size="14pt" fill="black" transform="translate(12.2,5.9)"/><rect stroke-width="0" fill="none" width="18.4" height="5.5" transform="translate(0.8,0.2)"/><text font-family="OpenSansCondensedLight" font-size="14pt" fill="black" transform="translate(0.8,0.2)" text-anchor="middle"><tspan x="9.2" y="9.1"> </tspan></text><path stroke="#000000" fill="none" transform="translate(0.8,0.2)" d="M 0 0"/></g><g><path stroke="black" stroke-dasharray="none" d="M 471 202 471 243 501 243" fill="none"/><path fill="black" stroke="black" d="" transform="translate(471,202) scale(1,1) rotate(-270)"/><path fill="black" stroke="black" d="" transform="translate(501,243) scale(1,1) rotate(-180)"/><g><g label-idx="0" cursor="move" transform="translate(471, 237.5)"><rect fill="white" rx="3" ry="3" x="0" y="0" width="0" height="0"/><text text-anchor="middle" font-size="14pt" font-family="OpenSansCondensedLight" y="0.8em" display="none" xml:space="preserve" transform="translate(0,0)"/></g></g></g><g><path stroke="black" stroke-dasharray="none" d="M 500 365 479 365 479 401" fill="none"/><path fill="black" stroke="black" d="" transform="translate(500,365) scale(1,1) rotate(-180)"/><path fill="black" stroke="black" d="" transform="translate(479,401) scale(1,1) rotate(-90)"/><g><g label-idx="0" cursor="move" transform="translate(479, 372.5)"><rect fill="white" rx="3" ry="3" x="0" y="0" width="0" height="0"/><text text-anchor="middle" font-size="14pt" font-family="OpenSansCondensedLight" y="0.8em" display="none" xml:space="preserve" transform="translate(0,0)"/></g></g></g><g><path stroke="black" stroke-dasharray="none" d="M 500 428 479 428 479 399" fill="none"/><path fill="black" stroke="black" d="" transform="translate(500,428) scale(1,1) rotate(-180)"/><path fill="black" stroke="black" d="" transform="translate(479,399) scale(1,1) rotate(-270)"/><g><g label-idx="0" cursor="move" transform="translate(479, 424)"><rect fill="white" rx="3" ry="3" x="0" y="0" width="0" height="0"/><text text-anchor="middle" font-size="14pt" font-family="OpenSansCondensedLight" y="0.8em" display="none" xml:space="preserve" transform="translate(0,0)"/></g></g></g><g><path stroke="black" stroke-dasharray="none" d="M 452 203 450 203" fill="none"/><path fill="black" stroke="black" d="" transform="translate(452,203) scale(1,1) rotate(-180)"/><path fill="black" stroke="black" d="M 8 0 L 0 4 L 8 8 z" transform="translate(442,199) scale(1,1) rotate(0)"/><g><g label-idx="0" cursor="move" transform="translate(451, 203)"><rect fill="white" rx="3" ry="3" x="0" y="0" width="0" height="0"/><text text-anchor="middle" font-size="14pt" font-family="OpenSansCondensedLight" y="0.8em" display="none" xml:space="preserve" transform="translate(0,0)"/></g></g></g><g><path stroke="black" stroke-dasharray="none" d="M 459 400 450 400" fill="none"/><path fill="black" stroke="black" d="" transform="translate(459,400) scale(1,1) rotate(-180)"/><path fill="black" stroke="black" d="M 8 0 L 0 4 L 8 8 z" transform="translate(442,396) scale(1,1) rotate(0)"/><g><g label-idx="0" cursor="move" transform="translate(454.5, 400)"><rect fill="white" rx="3" ry="3" x="0" y="0" width="0" height="0"/><text text-anchor="middle" font-size="14pt" font-family="OpenSansCondensedLight" y="0.8em" display="none" xml:space="preserve" transform="translate(0,0)"/></g></g></g><g><path stroke="black" stroke-dasharray="none" d="M 500 166 471 166 471 205" fill="none"/><path fill="black" stroke="black" d="" transform="translate(500,166) scale(1,1) rotate(-180)"/><path fill="black" stroke="black" d="" transform="translate(471,205) scale(1,1) rotate(-90)"/><g><g label-idx="0" cursor="move" transform="translate(471, 171)"><rect fill="white" rx="3" ry="3" x="0" y="0" width="0" height="0"/><text text-anchor="middle" font-size="14pt" font-family="OpenSansCondensedLight" y="0.8em" display="none" xml:space="preserve" transform="translate(0,0)"/></g></g></g><g><path stroke="black" stroke-dasharray="none" d="M 391 316 391 229" fill="none"/><path fill="black" stroke="black" d="" transform="translate(391,316) scale(1,1) rotate(-90)"/><path fill="black" stroke="black" d="" transform="translate(391,229) scale(1,1) rotate(-270)"/><g><g label-idx="0" cursor="move" transform="translate(391, 272.5)"><rect fill="white" rx="3" ry="3" x="0" y="0" width="0" height="0"/><text text-anchor="middle" font-size="14pt" font-family="OpenSansCondensedLight" y="0.8em" display="none" xml:space="preserve" transform="translate(0,0)"/></g></g></g><g><path stroke="black" stroke-dasharray="none" d="M 391 374 391 285" fill="none"/><path fill="black" stroke="black" d="" transform="translate(391,374) scale(1,1) rotate(-90)"/><path fill="black" stroke="black" d="" transform="translate(391,285) scale(1,1) rotate(-270)"/><g><g label-idx="0" cursor="move" transform="translate(391, 329.5)"><rect fill="white" rx="3" ry="3" x="0" y="0" width="0" height="0"/><text text-anchor="middle" font-size="14pt" font-family="OpenSansCondensedLight" y="0.8em" display="none" xml:space="preserve" transform="translate(0,0)"/></g></g></g><g transform="translate(209,250)"><g><g>
<path d="M94,0H0v143h94V0L94,0z" stroke="#000000" stroke-dasharray="5,5" fill="#FFFFFF"/>
<rect x="4.1" y="6.5" width="85.8" height="130" fill="none"/>
<circle fill="none" cx="47" cy="0" r="0.1"/>
<circle fill="none" cx="70.3" cy="0" r="0.1"/>
<circle fill="none" cx="94" cy="36.1" r="0.1"/>
<circle fill="none" cx="94" cy="71.5" r="0.1"/>
<circle fill="none" cx="94" cy="106.9" r="0.1"/>
<circle fill="none" cx="70.3" cy="143" r="0.1"/>
<circle fill="none" cx="47" cy="143" r="0.1"/>
<circle fill="none" cx="23.7" cy="143" r="0.1"/>
<circle fill="none" cx="0" cy="106.9" r="0.1"/>
<circle fill="none" cx="0" cy="71.5" r="0.1"/>
<circle fill="none" cx="0" cy="36.1" r="0.1"/>
<circle fill="none" cx="23.7" cy="0" r="0.1"/>
</g></g><rect stroke="none" stroke-width="1" fill="#FFFFFF" x="0" y="0" width="40" height="20" transform="translate(-72.1,-4)"/><path stroke="#000000" fill="none" d="M0,36.1 C-6.2,12.8 -28.5,39.2 -34.8 16"/><text font-family="OpenSansCondensedLight" font-size="14pt" fill="black" transform="translate(-72.1,-4)" text-anchor="middle"><tspan x="20" y="16.3">108</tspan></text><rect stroke-width="0" fill="none" width="85.8" height="130" transform="translate(4.1,6.5)"/><text font-family="OpenSansCondensedLight" font-size="14pt" fill="black" transform="translate(4.1,6.5)" text-anchor="middle"><tspan x="42.9" y="29.3">BATTERY</tspan><tspan x="42.9" y="50.3">ENERGY</tspan><tspan x="42.9" y="71.3">CONTROL</tspan><tspan x="42.9" y="92.3">MODULE</tspan><tspan x="42.9" y="113.3">(BECM)</tspan></text><path stroke="#000000" fill="none" transform="translate(4.1,6.5)" d="M 0 0"/></g><g><path stroke="black" stroke-dasharray="none" d="M 311 322 390 322" fill="none"/><path fill="black" stroke="black" d="M 8 0 L 0 4 L 8 8 z" transform="translate(303,318) scale(1,1) rotate(0)"/><path fill="black" stroke="black" d="" transform="translate(390,322) scale(1,1) rotate(-180)"/><g><g label-idx="0" cursor="move" transform="translate(350.5, 322)"><rect fill="white" rx="3" ry="3" x="0" y="0" width="0" height="0"/><text text-anchor="middle" font-size="14pt" font-family="OpenSansCondensedLight" y="0.8em" display="none" xml:space="preserve" transform="translate(0,0)"/></g></g></g><g transform="translate(204,134)"><g><g>
<path d="M104.4,0H0v87h104.4V0L104.4,0z" stroke="#000000" stroke-dasharray="none" fill="#FFFFFF"/>
<rect x="4.6" y="4" width="95.3" height="79.1" fill="none"/>
<circle fill="none" cx="52.2" cy="0" r="0.1"/>
<circle fill="none" cx="78.1" cy="0" r="0.1"/>
<circle fill="none" cx="104.4" cy="21.9" r="0.1"/>
<circle fill="none" cx="104.4" cy="43.5" r="0.1"/>
<circle fill="none" cx="104.4" cy="65.1" r="0.1"/>
<circle fill="none" cx="78.1" cy="87" r="0.1"/>
<circle fill="none" cx="52.2" cy="87" r="0.1"/>
<circle fill="none" cx="26.3" cy="87" r="0.1"/>
<circle fill="none" cx="0" cy="65.1" r="0.1"/>
<circle fill="none" cx="0" cy="43.5" r="0.1"/>
<circle fill="none" cx="0" cy="21.9" r="0.1"/>
<circle fill="none" cx="26.3" cy="0" r="0.1"/>
</g></g><rect stroke="none" stroke-width="1" fill="#FFFFFF" x="0" y="0" width="40" height="20" transform="translate(-80.1,33.4)"/><path stroke="#000000" fill="none" d="M0,43.5 C-17,26.5 -23.1,60.5 -40.1 43.4"/><text font-family="OpenSansCondensedLight" font-size="14pt" fill="black" transform="translate(-80.1,33.4)" text-anchor="middle"><tspan x="20" y="16.3">110</tspan></text><rect stroke-width="0" fill="none" width="95.3" height="79.1" transform="translate(4.6,4)"/><text font-family="OpenSansCondensedLight" font-size="14pt" fill="black" transform="translate(4.6,4)" text-anchor="middle"><tspan x="47.6" y="24.8">PACK</tspan><tspan x="47.6" y="45.8">TEMPERATURE</tspan><tspan x="47.6" y="66.8">MEASUREMENT</tspan></text><path stroke="#000000" fill="none" transform="translate(4.6,4)" d="M 0 0"/></g><g><path stroke="black" stroke-dasharray="none" d="M 256 221 256 242" fill="none"/><path fill="black" stroke="black" d="" transform="translate(256,221) scale(1,1) rotate(-270)"/><path fill="black" stroke="black" d="M 8 0 L 0 4 L 8 8 z" transform="translate(252,250) scale(1,1) rotate(-90)"/><g><g label-idx="0" cursor="move" transform="translate(256, 231.5)"><rect fill="white" rx="3" ry="3" x="0" y="0" width="0" height="0"/><text text-anchor="middle" font-size="14pt" font-family="OpenSansCondensedLight" y="0.8em" display="none" xml:space="preserve" transform="translate(0,0)"/></g></g></g><g transform="translate(467,467)"><g><g>
<path d="M162,0H0v53h162V0L162,0z" stroke="#000000" stroke-dasharray="none" fill="#FFFFFF"/>
<rect x="7.1" y="2.4" width="147.8" height="48.2" fill="none"/>
<circle fill="none" cx="81" cy="0" r="0.1"/>
<circle fill="none" cx="121.1" cy="0" r="0.1"/>
<circle fill="none" cx="162" cy="13.4" r="0.1"/>
<circle fill="none" cx="162" cy="26.5" r="0.1"/>
<circle fill="none" cx="162" cy="39.6" r="0.1"/>
<circle fill="none" cx="121.1" cy="53" r="0.1"/>
<circle fill="none" cx="81" cy="53" r="0.1"/>
<circle fill="none" cx="40.9" cy="53" r="0.1"/>
<circle fill="none" cx="0" cy="39.6" r="0.1"/>
<circle fill="none" cx="0" cy="26.5" r="0.1"/>
<circle fill="none" cx="0" cy="13.4" r="0.1"/>
<circle fill="none" cx="40.9" cy="0" r="0.1"/>
</g></g><rect stroke="none" stroke-width="1" fill="#FFFFFF" x="0" y="0" width="40" height="20" transform="translate(201.9,16.4)"/><path stroke="#000000" fill="none" d="M162,26.5 C179,43.4 184.9,9.5 201.9 26.4"/><text font-family="OpenSansCondensedLight" font-size="14pt" fill="black" transform="translate(201.9,16.4)" text-anchor="middle"><tspan x="20" y="16.3">112</tspan></text><rect stroke-width="0" fill="none" width="147.8" height="48.2" transform="translate(7.1,2.4)"/><text font-family="OpenSansCondensedLight" font-size="14pt" fill="black" transform="translate(7.1,2.4)" text-anchor="middle"><tspan x="73.9" y="19.9">PACK CURRENT</tspan><tspan x="73.9" y="40.9">MEASUREMENT</tspan></text><path stroke="#000000" fill="none" transform="translate(7.1,2.4)" d="M 0 0"/></g><g><path stroke="black" stroke-dasharray="none" d="M 548 520 548 546" fill="none"/><path fill="black" stroke="black" d="" transform="translate(548,520) scale(1,1) rotate(-270)"/><path fill="black" stroke="black" d="" transform="translate(548,546) scale(1,1) rotate(-90)"/><g><g label-idx="0" cursor="move" transform="translate(548, 533)"><rect fill="white" rx="3" ry="3" x="0" y="0" width="0" height="0"/><text text-anchor="middle" font-size="14pt" font-family="OpenSansCondensedLight" y="0.8em" display="none" xml:space="preserve" transform="translate(0,0)"/></g></g></g><g><path stroke="black" stroke-dasharray="none" d="M 547 467 547 453" fill="none"/><path fill="black" stroke="black" d="" transform="translate(547,467) scale(1,1) rotate(-90)"/><path fill="black" stroke="black" d="" transform="translate(547,453) scale(1,1) rotate(-270)"/><g><g label-idx="0" cursor="move" transform="translate(547, 460)"><rect fill="white" rx="3" ry="3" x="0" y="0" width="0" height="0"/><text text-anchor="middle" font-size="14pt" font-family="OpenSansCondensedLight" y="0.8em" display="none" xml:space="preserve" transform="translate(0,0)"/></g></g></g><g><path stroke="black" stroke-dasharray="none" d="M 467 496 259 496 259 400" fill="none"/><path fill="black" stroke="black" d="" transform="translate(467,496) scale(1,1) rotate(-180)"/><path fill="black" stroke="black" d="M 8 0 L 0 4 L 8 8 z" transform="translate(263,392) scale(1,1) rotate(-270)"/><g><g label-idx="0" cursor="move" transform="translate(315, 496)"><rect fill="white" rx="3" ry="3" x="0" y="0" width="0" height="0"/><text text-anchor="middle" font-size="14pt" font-family="OpenSansCondensedLight" y="0.8em" display="none" xml:space="preserve" transform="translate(0,0)"/></g></g></g><g transform="translate(28,293)"><g><g>
<path d="M146,0H0v55h146V0L146,0z" stroke="#000000" stroke-dasharray="none" fill="#FFFFFF"/>
<rect x="6.4" y="2.5" width="133.2" height="50" fill="none"/>
<circle fill="none" cx="73" cy="0" r="0.1"/>
<circle fill="none" cx="109.2" cy="0" r="0.1"/>
<circle fill="none" cx="146" cy="13.9" r="0.1"/>
<circle fill="none" cx="146" cy="27.5" r="0.1"/>
<circle fill="none" cx="146" cy="41.1" r="0.1"/>
<circle fill="none" cx="109.2" cy="55" r="0.1"/>
<circle fill="none" cx="73" cy="55" r="0.1"/>
<circle fill="none" cx="36.8" cy="55" r="0.1"/>
<circle fill="none" cx="0" cy="41.1" r="0.1"/>
<circle fill="none" cx="0" cy="27.5" r="0.1"/>
<circle fill="none" cx="0" cy="13.9" r="0.1"/>
<circle fill="none" cx="36.8" cy="0" r="0.1"/>
</g></g><rect stroke="none" stroke-width="1" fill="#FFFFFF" x="0" y="0" width="40" height="20" transform="translate(-13.3,-62.1)"/><path stroke="#000000" fill="none" d="M36.8,0 C44.4,-28.2 5,-13.9 12.5 -42.1"/><text font-family="OpenSansCondensedLight" font-size="14pt" fill="black" transform="translate(-13.3,-62.1)" text-anchor="middle"><tspan x="20" y="16.3">114</tspan></text><rect stroke-width="0" fill="none" width="133.2" height="50" transform="translate(6.4,2.5)"/><text font-family="OpenSansCondensedLight" font-size="14pt" fill="black" transform="translate(6.4,2.5)" text-anchor="middle"><tspan x="66.6" y="20.8">PACK VOLTAGE</tspan><tspan x="66.6" y="41.8">MEASUREMENT</tspan></text><path stroke="#000000" fill="none" transform="translate(6.4,2.5)" d="M 0 0"/></g><g><path stroke="black" stroke-dasharray="none" d="M 174 321 201 321" fill="none"/><path fill="black" stroke="black" d="" transform="translate(174,321) scale(1,1) rotate(0)"/><path fill="black" stroke="black" d="M 8 0 L 0 4 L 8 8 z" transform="translate(209,325) scale(1,1) rotate(-180)"/><g><g label-idx="0" cursor="move" transform="translate(187.5, 321)"><rect fill="white" rx="3" ry="3" x="0" y="0" width="0" height="0"/><text text-anchor="middle" font-size="14pt" font-family="OpenSansCondensedLight" y="0.8em" display="none" xml:space="preserve" transform="translate(0,0)"/></g></g></g><g><path stroke="black" stroke-dasharray="none" d="M 96 293 96 109 548 109" fill="none"/><path fill="black" stroke="black" d="" transform="translate(96,293) scale(1,1) rotate(-90)"/><path fill="black" stroke="black" d="" transform="translate(548,109) scale(1,1) rotate(-180)"/><g><g label-idx="0" cursor="move" transform="translate(230, 109)"><rect fill="white" rx="3" ry="3" x="0" y="0" width="0" height="0"/><text text-anchor="middle" font-size="14pt" font-family="OpenSansCondensedLight" y="0.8em" display="none" xml:space="preserve" transform="translate(0,0)"/></g></g></g><g><path stroke="black" stroke-dasharray="none" d="M 102 348 102 543 547 543" fill="none"/><path fill="black" stroke="black" d="" transform="translate(102,348) scale(1,1) rotate(-270)"/><path fill="black" stroke="black" d="" transform="translate(547,543) scale(1,1) rotate(-180)"/><g><g label-idx="0" cursor="move" transform="translate(227, 543)"><rect fill="white" rx="3" ry="3" x="0" y="0" width="0" height="0"/><text text-anchor="middle" font-size="14pt" font-family="OpenSansCondensedLight" y="0.8em" display="none" xml:space="preserve" transform="translate(0,0)"/></g></g></g></g><defs/></svg>